<svg width="266" height="266" viewBox="0 0 266 266" fill="none" xmlns="http://www.w3.org/2000/svg">
<g filter="url(#filter0_d_29_132)">
<circle cx="133" cy="133" r="110.5" transform="rotate(16.7361 133 133)" stroke="#EBF7BC" stroke-width="9"/>
<circle cx="133.958" cy="133.288" r="104.5" transform="rotate(16.7361 133.958 133.288)" fill="#EF6E39" stroke="#4069F8" stroke-width="9"/>
</g>
<path d="M180.621 102.403L190.354 91.79L192.871 71.4334L194.818 69.3109L202.247 76.1241L199.159 88.0121L199.867 88.661L211.409 84.527L218.838 91.3402L216.891 93.4627L196.385 97.7124L193.321 101.48L187.059 108.307L180.621 102.403Z" fill="#1E1E1E"/>
<path d="M141.872 80.8508L147.348 74.4377L149.889 68.8966L153.718 69.0684L167.013 55.0463L178.314 60.2287L176.374 82.9967L176.892 90.733L174.551 95.8378L166.828 92.2961L167.848 84.3148L155.152 78.4921L150.074 84.6126L141.872 80.8508ZM161.113 73.0936L168.53 76.4951L169.796 64.983L168.88 64.5628L161.113 73.0936Z" fill="#1E1E1E"/>
<path d="M126.446 79.6897L130.14 53.6463L120.567 52.7736L121.713 44.6945L149.515 48.637L148.369 56.7162L138.694 54.8594L136.079 73.2989L135.928 78.1255L135.001 80.9028L126.446 79.6897Z" fill="#1E1E1E"/>
<path d="M104.152 80.6419C102.405 80.8542 100.734 80.8961 99.1391 80.7676C97.54 80.6073 96.1398 80.3584 94.9383 80.0209C93.7368 79.6833 92.841 79.3409 92.2507 78.9936L91.2143 70.4643C92.8433 71.1367 94.8636 71.7132 97.2752 72.1938C99.6829 72.6426 102.3 72.6953 105.128 72.3517C106.271 72.2128 107.096 71.9675 107.601 71.616C108.134 71.2289 108.354 70.6541 108.262 69.8917C108.161 69.0658 107.443 68.46 106.107 68.0744C104.798 67.6531 102.744 67.1936 99.9434 66.6958C97.7658 66.2835 95.8822 65.7709 94.2927 65.1582C92.7311 64.5099 91.4798 63.6304 90.539 62.5198C89.6261 61.3735 89.0538 59.8474 88.8222 57.9414C88.5828 55.9719 88.8749 54.1312 89.6984 52.4194C90.522 50.7076 91.9578 49.2598 94.006 48.0761C96.0541 46.8923 98.7618 46.0959 102.129 45.6867C103.146 45.5632 104.231 45.4796 105.387 45.4359C106.57 45.3566 107.518 45.3381 108.233 45.3802L114.098 48.6808L112.946 54.7199L101.276 52.9949C99.974 53.1532 99.0379 53.541 98.4682 54.1582C97.9303 54.7716 97.7077 55.4594 97.8003 56.2218C97.9122 57.1431 98.5252 57.81 99.6391 58.2226C100.753 58.6353 102.328 58.9919 104.363 59.2926C107.58 59.772 110.11 60.4316 111.953 61.2715C113.796 62.1113 115.147 63.1559 116.008 64.4051C116.866 65.6226 117.394 67.0573 117.595 68.7091C117.966 71.7587 117.042 74.3692 114.824 76.5407C112.602 78.6803 109.045 80.0474 104.152 80.6419Z" fill="#1E1E1E"/>
<path d="M132.407 114.234C133.655 110.085 134.889 107.253 136.109 105.741C137.739 103.794 140.086 103.282 143.151 104.203C144.619 104.645 146.317 105.364 148.245 106.362C145.604 111.206 142.311 118.57 138.365 128.452L130.171 150.841C129.858 150.956 129.309 150.93 128.523 150.763C127.738 150.597 126.956 150.188 126.177 149.536C125.399 148.884 125.035 148.009 125.087 146.911C126.55 136.49 128.99 125.598 132.407 114.234ZM130.775 164.806C130.237 166.594 129.087 167.989 127.324 168.99C125.644 169.947 123.846 170.137 121.931 169.561C120.016 168.985 118.589 167.825 117.652 166.082C116.778 164.357 116.62 162.569 117.176 160.717C117.752 158.802 118.912 157.376 120.656 156.438C122.4 155.501 124.197 155.31 126.049 155.867C127.9 156.424 129.285 157.606 130.204 159.414C131.141 161.157 131.331 162.955 130.775 164.806Z" fill="#1E1E1E"/>
<path d="M167.481 221.987L160.222 201.346L158.141 197.838L158.086 195.271L169.331 191.316C171.142 190.679 172.94 190.245 174.724 190.013C176.525 189.748 178.243 189.85 179.878 190.321C181.539 190.783 183.052 191.749 184.417 193.22C185.807 194.681 186.989 196.796 187.962 199.563C188.935 202.33 189.345 204.744 189.194 206.804C189.033 208.839 188.459 210.582 187.47 212.032C186.482 213.482 185.211 214.692 183.659 215.662C182.131 216.623 180.487 217.413 178.726 218.033L167.481 221.987ZM172.225 213.534L176.603 211.995C178.816 211.217 180.311 210.041 181.086 208.468C181.853 206.87 181.767 204.737 180.83 202.071C179.892 199.404 178.638 197.767 177.068 197.161C175.514 196.52 173.643 196.584 171.454 197.354L167.077 198.893L172.225 213.534Z" fill="#1E1E1E"/>
<path d="M131.402 224.309L130.593 221.912L131.378 217.909L131.295 195.989L151.094 195.914L153.099 197.106L150.48 202.716L146.879 202.33L138.519 202.361L138.535 206.761L149.295 206.721L149.319 212.921L144.599 212.938L138.557 212.561L138.578 217.881L150.537 217.836L155.312 221.658L152.962 224.227L131.402 224.309Z" fill="#1E1E1E"/>
<path d="M94.4897 214.78L101.368 194.009L101.866 189.96L103.38 187.934L109.494 189.958L113.744 202.827L114.523 206.582L114.902 206.708L119.366 193.228L126.543 195.604L125.789 197.883L124.151 201.554L117.273 222.325L111.311 220.351L106.207 203.828L105.827 203.702L105.073 205.981L101.78 217.194L94.4897 214.78Z" fill="#1E1E1E"/>
<path d="M71.6471 200.844C68.3957 198.335 66.5168 195.707 66.0102 192.958C65.5411 190.205 66.5772 187.181 69.1184 183.888L75.4714 175.654L77.9709 172.479L79.4053 170.555L85.1692 175.002L75.3709 187.701C74.2306 189.179 73.5977 190.611 73.4721 191.996C73.3628 193.36 74.0576 194.62 75.5567 195.777C77.0557 196.933 78.4371 197.325 79.701 196.953C81.0022 196.576 82.2719 195.586 83.5099 193.981L93.3082 181.282L98.977 185.655L88.69 198.988C86.1977 202.219 83.5628 203.975 80.7854 204.257C78.029 204.555 74.983 203.418 71.6471 200.844Z" fill="#1E1E1E"/>
<path d="M46.0125 172.608L63.9708 160.038L59.0557 153.714L64.6267 149.814L78.0447 168.985L72.4737 172.884L68.0994 165.937L55.3844 174.837L52.3597 177.491L50.1411 178.506L46.0125 172.608Z" fill="#1E1E1E"/>
<defs>
<filter id="filter0_d_29_132" x="13.9697" y="17.9697" width="238.061" height="238.061" filterUnits="userSpaceOnUse" color-interpolation-filters="sRGB">
<feFlood flood-opacity="0" result="BackgroundImageFix"/>
<feColorMatrix in="SourceAlpha" type="matrix" values="0 0 0 0 0 0 0 0 0 0 0 0 0 0 0 0 0 0 127 0" result="hardAlpha"/>
<feOffset dy="4"/>
<feGaussianBlur stdDeviation="2"/>
<feComposite in2="hardAlpha" operator="out"/>
<feColorMatrix type="matrix" values="0 0 0 0 0 0 0 0 0 0 0 0 0 0 0 0 0 0 0.25 0"/>
<feBlend mode="normal" in2="BackgroundImageFix" result="effect1_dropShadow_29_132"/>
<feBlend mode="normal" in="SourceGraphic" in2="effect1_dropShadow_29_132" result="shape"/>
</filter>
</defs>
</svg>
